<svg width="512" height="512" viewBox="0 0 512 512" xmlns="http://www.w3.org/2000/svg"><defs><linearGradient id="sg" x1="0" y1="0" x2="1" y2="1"><stop offset="0%" stop-color="#4A8BC0"/><stop offset="100%" stop-color="#2B5E90"/></linearGradient></defs><rect width="512" height="512" fill="url(#sg)"/><rect x="198" y="120" width="116" height="18" rx="9" fill="#FAFAF4"/><rect x="248" y="138" width="16" height="26" rx="8" fill="#FAFAF4"/><rect x="214" y="164" width="84" height="156" rx="42" fill="none" stroke="#FAFAF4" stroke-width="17"/><path d="M256 206 C256 206 233 232 233 250 C233 264 243 274 256 274 C269 274 279 264 279 250 C279 232 256 206 256 206 Z" fill="#FFFFFF"/><rect x="248" y="320" width="16" height="40" rx="8" fill="#FAFAF4"/><path d="M256 360 C256 360 216 410 216 436 C216 458 234 474 256 474 C278 474 296 458 296 436 C296 410 256 360 256 360 Z" fill="none" stroke="#FAFAF4" stroke-width="17"/></svg>